<svg xmlns="http://www.w3.org/2000/svg" xmlns:xlink="http://www.w3.org/1999/xlink" width="500" zoomAndPan="magnify" viewBox="0 0 375 374.999991" height="500" preserveAspectRatio="xMidYMid meet" version="1.0"><defs><g/><clipPath id="dccb73d340"><path d="M 0.339844 0.75 L 374.589844 0.75 L 374.589844 375 L 0.339844 375 Z M 0.339844 0.75 " clip-rule="nonzero"/></clipPath><clipPath id="44680a1a5c"><path d="M 187.464844 0.75 C 84.121094 0.75 0.339844 84.527344 0.339844 187.875 C 0.339844 291.222656 84.121094 375 187.464844 375 C 290.8125 375 374.589844 291.222656 374.589844 187.875 C 374.589844 84.527344 290.8125 0.75 187.464844 0.75 Z M 187.464844 0.75 " clip-rule="nonzero"/></clipPath><clipPath id="576f1c436c"><path d="M 0.339844 0.75 L 374.589844 0.75 L 374.589844 375 L 0.339844 375 Z M 0.339844 0.75 " clip-rule="nonzero"/></clipPath><clipPath id="2b1b012bf1"><path d="M 187.464844 0.75 C 84.121094 0.75 0.339844 84.527344 0.339844 187.875 C 0.339844 291.222656 84.121094 375 187.464844 375 C 290.8125 375 374.589844 291.222656 374.589844 187.875 C 374.589844 84.527344 290.8125 0.75 187.464844 0.75 Z M 187.464844 0.75 " clip-rule="nonzero"/></clipPath><clipPath id="772ae184e7"><rect x="0" width="375" y="0" height="375"/></clipPath></defs><g clip-path="url(#dccb73d340)"><g clip-path="url(#44680a1a5c)"><g><g clip-path="url(#772ae184e7)"><g clip-path="url(#576f1c436c)"><g clip-path="url(#2b1b012bf1)"><path fill="#826349" d="M 0.339844 0.75 L 374.589844 0.75 L 374.589844 375 L 0.339844 375 Z M 0.339844 0.75 " fill-opacity="1" fill-rule="nonzero"/></g></g></g></g></g></g><g fill="#f6f4f0" fill-opacity="1"><g transform="translate(50.030161, 306.087807)"><g><path d="M 0 -230.78125 L 25.546875 -230.78125 L 25.546875 -97.546875 C 48.109375 -119.078125 70.003906 -140.710938 91.234375 -162.453125 C 112.460938 -184.203125 133.332031 -206.976562 153.84375 -230.78125 L 179.390625 -230.78125 L 68.921875 -130.15625 C 73.234375 -131.800781 77.75 -133.082031 82.46875 -134 C 87.1875 -134.925781 91.800781 -135.082031 96.3125 -134.46875 C 102.875 -133.851562 108.304688 -132.160156 112.609375 -129.390625 C 116.921875 -126.617188 120.617188 -123.078125 123.703125 -118.765625 C 128.421875 -112.410156 132.675781 -104.71875 136.46875 -95.6875 C 140.257812 -86.664062 143.847656 -77.128906 147.234375 -67.078125 C 150.617188 -57.023438 154.101562 -47.125 157.6875 -37.375 C 161.28125 -27.632812 165.335938 -18.765625 169.859375 -10.765625 C 171.285156 -8.710938 172.816406 -6.660156 174.453125 -4.609375 C 176.097656 -2.554688 177.742188 -1.019531 179.390625 0 L 157.234375 0 C 150.878906 0 146.773438 -1.382812 144.921875 -4.15625 C 143.078125 -6.925781 141.03125 -10.671875 138.78125 -15.390625 C 136.113281 -21.535156 133.34375 -28.765625 130.46875 -37.078125 C 127.59375 -45.390625 124.664062 -53.953125 121.6875 -62.765625 C 118.71875 -71.585938 115.59375 -80.050781 112.3125 -88.15625 C 109.03125 -96.257812 105.539062 -103.285156 101.84375 -109.234375 C 95.28125 -119.492188 87.691406 -125.082031 79.078125 -126 C 70.460938 -126.925781 61.644531 -123.285156 52.625 -115.078125 L 25.546875 -90.46875 L 25.546875 0 L 0 0 Z M 0 -230.78125 "/></g></g></g><g fill="#f6f4f0" fill-opacity="1"><g transform="translate(153.32708, 213.499787)"><g><path d="M 93.75 -187.5 C 100.582031 -187.5 107.375 -186.875 114.125 -185.625 C 120.875 -184.375 127.332031 -182.332031 133.5 -179.5 C 137.5 -177.664062 141.625 -175.164062 145.875 -172 C 150.125 -168.832031 153.707031 -165.207031 156.625 -161.125 C 159.539062 -157.039062 161 -152.582031 161 -147.75 C 161 -142.082031 159.125 -137.375 155.375 -133.625 C 151.625 -129.875 146.25 -128.082031 139.25 -128.25 C 141.914062 -135.75 142.539062 -142.832031 141.125 -149.5 C 139.707031 -156.164062 136.75 -162.039062 132.25 -167.125 C 127.75 -172.207031 122.164062 -176.207031 115.5 -179.125 C 108.832031 -182.039062 101.582031 -183.5 93.75 -183.5 C 83.75 -183.5 74.332031 -181.164062 65.5 -176.5 C 56.664062 -171.832031 48.875 -165.375 42.125 -157.125 C 35.375 -148.875 30.125 -139.332031 26.375 -128.5 C 22.625 -117.664062 20.75 -106.082031 20.75 -93.75 C 20.75 -82.25 22.414062 -71.375 25.75 -61.125 C 29.082031 -50.875 33.664062 -41.75 39.5 -33.75 C 45.332031 -25.75 52.082031 -19.25 59.75 -14.25 C 68.582031 -8.582031 77.707031 -5.289062 87.125 -4.375 C 96.539062 -3.457031 105.789062 -4.5 114.875 -7.5 C 123.957031 -10.5 132.457031 -14.957031 140.375 -20.875 C 148.289062 -26.789062 155.164062 -33.75 161 -41.75 L 161 -20.75 C 152.5 -14.082031 142.457031 -8.957031 130.875 -5.375 C 119.289062 -1.789062 106.914062 0 93.75 0 C 80.914062 0 68.832031 -2.414062 57.5 -7.25 C 46.164062 -12.082031 36.207031 -18.789062 27.625 -27.375 C 19.039062 -35.957031 12.289062 -45.914062 7.375 -57.25 C 2.457031 -68.582031 0 -80.75 0 -93.75 C 0 -106.75 2.414062 -118.914062 7.25 -130.25 C 12.082031 -141.582031 18.789062 -151.539062 27.375 -160.125 C 35.957031 -168.707031 45.914062 -175.414062 57.25 -180.25 C 68.582031 -185.082031 80.75 -187.5 93.75 -187.5 Z M 93.75 -187.5 "/></g></g></g><g fill="#f6f4f0" fill-opacity="1"><g transform="translate(231.221416, 354.363404)"><g><path d="M 0 -187.5 L 133.75 -187.5 L 133.75 -166.5 C 125.414062 -168.332031 117.332031 -170.25 109.5 -172.25 C 101.664062 -174.25 93.5 -176.082031 85 -177.75 C 76.5 -179.414062 67.039062 -180.789062 56.625 -181.875 C 46.207031 -182.957031 34.25 -183.5 20.75 -183.5 L 20.75 -106.75 C 25.082031 -112.082031 30.332031 -115.75 36.5 -117.75 C 42.664062 -119.75 48.832031 -120.082031 55 -118.75 C 59.164062 -117.914062 63.25 -116.582031 67.25 -114.75 C 71.25 -112.914062 75.25 -111.125 79.25 -109.375 C 83.25 -107.625 87.414062 -106.414062 91.75 -105.75 C 95.582031 -105.082031 99.457031 -105.164062 103.375 -106 C 107.289062 -106.832031 109.75 -109.832031 110.75 -115 C 112.75 -106 112.125 -99.039062 108.875 -94.125 C 105.625 -89.207031 100.914062 -86.332031 94.75 -85.5 C 88.75 -84.832031 83.039062 -85.664062 77.625 -88 C 72.207031 -90.332031 67 -93.207031 62 -96.625 C 57 -100.039062 52.082031 -102.957031 47.25 -105.375 C 42.414062 -107.789062 37.582031 -108.75 32.75 -108.25 C 29.75 -107.914062 27 -106.832031 24.5 -105 C 22 -103.164062 20.75 -100.414062 20.75 -96.75 L 20.75 0 L 0 0 Z M 0 -187.5 "/></g></g></g></svg>