<svg xmlns="http://www.w3.org/2000/svg" xmlns:xlink="http://www.w3.org/1999/xlink" width="500" zoomAndPan="magnify" viewBox="0 0 375 374.999991" height="500" preserveAspectRatio="xMidYMid meet" version="1.0"><defs><g/><clipPath id="f4d8776305"><path d="M 0.75 0.75 L 375 0.75 L 375 375 L 0.75 375 Z M 0.75 0.75 " clip-rule="nonzero"/></clipPath><clipPath id="70d4a4e9f6"><path d="M 187.875 0.75 C 84.527344 0.75 0.75 84.527344 0.75 187.875 C 0.75 291.222656 84.527344 375 187.875 375 C 291.222656 375 375 291.222656 375 187.875 C 375 84.527344 291.222656 0.75 187.875 0.75 Z M 187.875 0.75 " clip-rule="nonzero"/></clipPath><clipPath id="0090f7dd8d"><path d="M 0.75 0.75 L 375 0.75 L 375 375 L 0.75 375 Z M 0.75 0.75 " clip-rule="nonzero"/></clipPath><clipPath id="59c9ae793a"><path d="M 187.875 0.75 C 84.527344 0.75 0.75 84.527344 0.75 187.875 C 0.75 291.222656 84.527344 375 187.875 375 C 291.222656 375 375 291.222656 375 187.875 C 375 84.527344 291.222656 0.75 187.875 0.75 Z M 187.875 0.75 " clip-rule="nonzero"/></clipPath><clipPath id="66fa249951"><rect x="0" width="375" y="0" height="375"/></clipPath><clipPath id="0866600d8e"><rect x="0" width="166" y="0" height="258"/></clipPath><clipPath id="2c371ea33a"><rect x="0" width="120" y="0" height="208"/></clipPath></defs><g clip-path="url(#f4d8776305)"><g clip-path="url(#70d4a4e9f6)"><g><g clip-path="url(#66fa249951)"><g clip-path="url(#0090f7dd8d)"><g clip-path="url(#59c9ae793a)"><path fill="#00a5ad" d="M 0.75 0.75 L 375 0.75 L 375 375 L 0.75 375 Z M 0.75 0.75 " fill-opacity="1" fill-rule="nonzero"/></g></g></g></g></g></g><g transform="matrix(1, 0, 0, 1, 23, 81)"><g clip-path="url(#0866600d8e)"><g fill="#f6f4f0" fill-opacity="1"><g transform="translate(0.693753, 193.818811)"><g><path d="M 14.515625 -161.265625 C 14.515625 -167.285156 13.707031 -172.039062 12.09375 -175.53125 C 10.476562 -179.03125 7.789062 -181.265625 4.03125 -182.234375 L 4.03125 -183.84375 L 76.59375 -183.84375 L 76.59375 -182.234375 C 72.832031 -181.265625 70.144531 -179.03125 68.53125 -175.53125 C 66.925781 -172.039062 66.125 -167.285156 66.125 -161.265625 L 66.125 -116.4375 C 67.84375 -118.050781 70.070312 -120.253906 72.8125 -123.046875 C 75.550781 -125.835938 78.453125 -128.925781 81.515625 -132.3125 C 84.578125 -135.695312 87.453125 -139.269531 90.140625 -143.03125 C 92.828125 -146.800781 95.03125 -150.484375 96.75 -154.078125 C 98.476562 -157.679688 99.34375 -161.046875 99.34375 -164.171875 C 99.34375 -168.472656 98.773438 -171.804688 97.640625 -174.171875 C 96.515625 -176.535156 94.957031 -178.304688 92.96875 -179.484375 C 90.976562 -180.671875 88.691406 -181.585938 86.109375 -182.234375 L 86.109375 -183.84375 L 158.6875 -183.84375 L 158.6875 -182.234375 C 154.382812 -181.160156 149.328125 -178.796875 143.515625 -175.140625 C 137.710938 -171.484375 131.53125 -167.070312 124.96875 -161.90625 C 118.414062 -156.75 111.832031 -151.320312 105.21875 -145.625 C 98.613281 -139.925781 92.300781 -134.414062 86.28125 -129.09375 C 80.257812 -123.769531 74.882812 -119.117188 70.15625 -115.140625 C 74.882812 -115.785156 79.238281 -116.109375 83.21875 -116.109375 C 92.03125 -116.109375 99.421875 -114.765625 105.390625 -112.078125 C 111.359375 -109.390625 116.273438 -105.734375 120.140625 -101.109375 C 124.015625 -96.484375 127.160156 -91.238281 129.578125 -85.375 C 131.992188 -79.519531 133.953125 -73.367188 135.453125 -66.921875 C 136.960938 -60.472656 138.335938 -54.128906 139.578125 -47.890625 C 140.816406 -41.660156 142.210938 -35.828125 143.765625 -30.390625 C 145.328125 -24.960938 147.394531 -20.3125 149.96875 -16.4375 C 152.550781 -12.570312 155.941406 -9.890625 160.140625 -8.390625 C 160.140625 -8.390625 159.789062 -7.820312 159.09375 -6.6875 C 158.394531 -5.5625 157.15625 -4.21875 155.375 -2.65625 C 153.601562 -1.101562 151.101562 0.234375 147.875 1.359375 C 144.65625 2.492188 140.519531 3.0625 135.46875 3.0625 C 126.320312 3.0625 118.710938 1.773438 112.640625 -0.796875 C 106.566406 -3.378906 101.675781 -6.875 97.96875 -11.28125 C 94.257812 -15.695312 91.4375 -20.753906 89.5 -26.453125 C 87.5625 -32.148438 86.21875 -38.140625 85.46875 -44.421875 C 84.71875 -50.710938 84.207031 -57.03125 83.9375 -63.375 C 83.664062 -69.71875 83.367188 -75.738281 83.046875 -81.4375 C 82.722656 -87.132812 82.050781 -92.238281 81.03125 -96.75 C 80.007812 -101.269531 78.34375 -104.816406 76.03125 -107.390625 C 73.71875 -109.972656 70.414062 -111.320312 66.125 -111.4375 L 66.125 -22.578125 C 66.125 -16.660156 66.925781 -11.925781 68.53125 -8.375 C 70.144531 -4.832031 72.832031 -2.578125 76.59375 -1.609375 L 76.59375 0 L 4.03125 0 L 4.03125 -1.609375 C 7.789062 -2.578125 10.476562 -4.832031 12.09375 -8.375 C 13.707031 -11.925781 14.515625 -16.660156 14.515625 -22.578125 Z M 14.515625 -161.265625 "/></g></g></g></g></g><g transform="matrix(1, 0, 0, 1, 186, 37)"><g clip-path="url(#2c371ea33a)"><g fill="#f6f4f0" fill-opacity="1"><g transform="translate(1.496055, 156.321681)"><g><path d="M 5.859375 -74.15625 C 5.859375 -86.125 7.59375 -96.851562 11.0625 -106.34375 C 14.53125 -115.84375 19.273438 -123.890625 25.296875 -130.484375 C 31.328125 -137.078125 38.242188 -142.109375 46.046875 -145.578125 C 53.859375 -149.046875 62.144531 -150.78125 70.90625 -150.78125 C 74.457031 -150.78125 77.488281 -150.648438 80 -150.390625 C 82.519531 -150.128906 84.90625 -149.847656 87.15625 -149.546875 C 89.414062 -149.242188 91.820312 -148.960938 94.375 -148.703125 C 96.9375 -148.441406 99.953125 -148.3125 103.421875 -148.3125 C 104.722656 -148.3125 106.128906 -148.503906 107.640625 -148.890625 C 109.160156 -149.285156 110.269531 -149.914062 110.96875 -150.78125 L 112.265625 -150.78125 L 112.265625 -103.546875 L 110.96875 -103.546875 C 110.53125 -107.109375 109.679688 -110.90625 108.421875 -114.9375 C 107.171875 -118.96875 105.546875 -122.9375 103.546875 -126.84375 C 101.554688 -130.75 99.191406 -134.304688 96.453125 -137.515625 C 93.722656 -140.722656 90.664062 -143.28125 87.28125 -145.1875 C 83.90625 -147.09375 80.222656 -148.046875 76.234375 -148.046875 C 71.203125 -148.046875 66.953125 -145.984375 63.484375 -141.859375 C 60.015625 -137.742188 57.195312 -132.171875 55.03125 -125.140625 C 52.863281 -118.117188 51.28125 -110.207031 50.28125 -101.40625 C 49.28125 -92.601562 48.78125 -83.472656 48.78125 -74.015625 C 48.78125 -66.554688 49.082031 -59.226562 49.6875 -52.03125 C 50.300781 -44.832031 51.28125 -38.085938 52.625 -31.796875 C 53.96875 -25.515625 55.722656 -19.988281 57.890625 -15.21875 C 60.054688 -10.445312 62.65625 -6.71875 65.6875 -4.03125 C 68.726562 -1.34375 72.242188 0 76.234375 0 C 79.523438 0 82.601562 -1.039062 85.46875 -3.125 C 88.332031 -5.207031 90.957031 -7.984375 93.34375 -11.453125 C 95.726562 -14.921875 97.875 -18.734375 99.78125 -22.890625 C 101.6875 -27.054688 103.375 -31.21875 104.84375 -35.375 C 106.320312 -39.539062 107.5625 -43.398438 108.5625 -46.953125 C 109.5625 -50.515625 110.363281 -53.335938 110.96875 -55.421875 L 112.265625 -55.421875 L 112.265625 -8.203125 C 112.265625 -8.203125 111.484375 -7.65625 109.921875 -6.5625 C 108.367188 -5.476562 105.941406 -4.242188 102.640625 -2.859375 C 99.347656 -1.472656 95.078125 -0.238281 89.828125 0.84375 C 84.578125 1.925781 78.269531 2.46875 70.90625 2.46875 C 62.144531 2.46875 53.859375 0.734375 46.046875 -2.734375 C 38.242188 -6.203125 31.328125 -11.226562 25.296875 -17.8125 C 19.273438 -24.40625 14.53125 -32.453125 11.0625 -41.953125 C 7.59375 -51.453125 5.859375 -62.1875 5.859375 -74.15625 Z M 5.859375 -74.15625 "/></g></g></g></g></g><g fill="#f6f4f0" fill-opacity="1"><g transform="translate(181.871537, 354.272715)"><g><path d="M 11.703125 -130 C 11.703125 -134.851562 11.050781 -138.6875 9.75 -141.5 C 8.445312 -144.320312 6.28125 -146.125 3.25 -146.90625 L 3.25 -148.203125 L 107.515625 -148.203125 L 107.515625 -103.484375 L 106.203125 -103.484375 C 106.203125 -106.335938 105.488281 -109.582031 104.0625 -113.21875 C 102.632812 -116.863281 100.578125 -120.59375 97.890625 -124.40625 C 95.203125 -128.21875 92.035156 -131.707031 88.390625 -134.875 C 84.753906 -138.039062 80.679688 -140.617188 76.171875 -142.609375 C 71.671875 -144.597656 66.863281 -145.59375 61.75 -145.59375 L 53.296875 -145.59375 L 53.296875 -80.46875 L 58.375 -80.46875 C 61.582031 -80.46875 64.851562 -81.140625 68.1875 -82.484375 C 71.519531 -83.828125 74.640625 -85.5625 77.546875 -87.6875 C 80.453125 -89.8125 82.878906 -92.171875 84.828125 -94.765625 C 86.773438 -97.367188 87.96875 -99.882812 88.40625 -102.3125 L 89.703125 -102.3125 L 89.703125 -56.03125 L 88.40625 -56.03125 C 87.96875 -58.539062 86.773438 -61.070312 84.828125 -63.625 C 82.878906 -66.1875 80.453125 -68.53125 77.546875 -70.65625 C 74.640625 -72.78125 71.519531 -74.515625 68.1875 -75.859375 C 64.851562 -77.203125 61.582031 -77.875 58.375 -77.875 L 53.296875 -77.875 L 53.296875 -18.203125 C 53.296875 -13.429688 53.945312 -9.613281 55.25 -6.75 C 56.550781 -3.894531 58.71875 -2.078125 61.75 -1.296875 L 61.75 0 L 3.25 0 L 3.25 -1.296875 C 6.28125 -2.078125 8.445312 -3.894531 9.75 -6.75 C 11.050781 -9.613281 11.703125 -13.429688 11.703125 -18.203125 Z M 11.703125 -130 "/></g></g></g></svg>