<svg xmlns="http://www.w3.org/2000/svg" xmlns:xlink="http://www.w3.org/1999/xlink" width="500" zoomAndPan="magnify" viewBox="0 0 375 374.999991" height="500" preserveAspectRatio="xMidYMid meet" version="1.0"><defs><g/><clipPath id="f47871a04a"><path d="M 0.75 0.75 L 375 0.75 L 375 375 L 0.75 375 Z M 0.75 0.75 " clip-rule="nonzero"/></clipPath><clipPath id="9b1637c4d0"><path d="M 187.875 0.75 C 84.527344 0.75 0.75 84.527344 0.75 187.875 C 0.75 291.222656 84.527344 375 187.875 375 C 291.222656 375 375 291.222656 375 187.875 C 375 84.527344 291.222656 0.75 187.875 0.75 Z M 187.875 0.75 " clip-rule="nonzero"/></clipPath><clipPath id="64642094ec"><path d="M 0.75 0.75 L 375 0.75 L 375 375 L 0.75 375 Z M 0.75 0.75 " clip-rule="nonzero"/></clipPath><clipPath id="dad30244c9"><path d="M 187.875 0.75 C 84.527344 0.75 0.75 84.527344 0.75 187.875 C 0.75 291.222656 84.527344 375 187.875 375 C 291.222656 375 375 291.222656 375 187.875 C 375 84.527344 291.222656 0.75 187.875 0.75 Z M 187.875 0.75 " clip-rule="nonzero"/></clipPath><clipPath id="cdf7363f49"><rect x="0" width="375" y="0" height="375"/></clipPath><clipPath id="a66e9b0794"><rect x="0" width="164" y="0" height="255"/></clipPath><clipPath id="56e725c6be"><rect x="0" width="120" y="0" height="208"/></clipPath></defs><g clip-path="url(#f47871a04a)"><g clip-path="url(#9b1637c4d0)"><g><g clip-path="url(#cdf7363f49)"><g clip-path="url(#64642094ec)"><g clip-path="url(#dad30244c9)"><path fill="#f6f4f0" d="M 0.75 0.75 L 375 0.75 L 375 375 L 0.75 375 Z M 0.75 0.75 " fill-opacity="1" fill-rule="nonzero"/></g></g></g></g></g></g><g transform="matrix(1, 0, 0, 1, 19, 101)"><g clip-path="url(#a66e9b0794)"><g fill="#5d4560" fill-opacity="1"><g transform="translate(1.096788, 191.958954)"><g><path d="M 14.34375 -159.453125 C 14.34375 -165.398438 13.546875 -170.101562 11.953125 -173.5625 C 10.359375 -177.019531 7.703125 -179.226562 3.984375 -180.1875 L 3.984375 -181.78125 L 75.734375 -181.78125 L 75.734375 -180.1875 C 72.015625 -179.226562 69.359375 -177.019531 67.765625 -173.5625 C 66.171875 -170.101562 65.375 -165.398438 65.375 -159.453125 L 65.375 -115.125 C 67.070312 -116.71875 69.273438 -118.894531 71.984375 -121.65625 C 74.703125 -124.425781 77.570312 -127.484375 80.59375 -130.828125 C 83.625 -134.179688 86.46875 -137.71875 89.125 -141.4375 C 91.789062 -145.15625 93.972656 -148.796875 95.671875 -152.359375 C 97.367188 -155.921875 98.21875 -159.242188 98.21875 -162.328125 C 98.21875 -166.578125 97.660156 -169.867188 96.546875 -172.203125 C 95.429688 -174.546875 93.890625 -176.300781 91.921875 -177.46875 C 89.953125 -178.632812 87.691406 -179.539062 85.140625 -180.1875 L 85.140625 -181.78125 L 156.90625 -181.78125 L 156.90625 -180.1875 C 152.65625 -179.125 147.65625 -176.785156 141.90625 -173.171875 C 136.164062 -169.554688 130.050781 -165.195312 123.5625 -160.09375 C 117.082031 -154.988281 110.570312 -149.617188 104.03125 -143.984375 C 97.5 -138.347656 91.253906 -132.898438 85.296875 -127.640625 C 79.347656 -122.378906 74.035156 -117.78125 69.359375 -113.84375 C 74.035156 -114.488281 78.34375 -114.8125 82.28125 -114.8125 C 91 -114.8125 98.304688 -113.476562 104.203125 -110.8125 C 110.097656 -108.15625 114.957031 -104.539062 118.78125 -99.96875 C 122.613281 -95.40625 125.722656 -90.222656 128.109375 -84.421875 C 130.503906 -78.628906 132.445312 -72.546875 133.9375 -66.171875 C 135.425781 -59.796875 136.78125 -53.523438 138 -47.359375 C 139.226562 -41.191406 140.613281 -35.421875 142.15625 -30.046875 C 143.695312 -24.679688 145.742188 -20.085938 148.296875 -16.265625 C 150.847656 -12.441406 154.195312 -9.785156 158.34375 -8.296875 C 158.34375 -8.296875 157.992188 -7.734375 157.296875 -6.609375 C 156.609375 -5.492188 155.382812 -4.164062 153.625 -2.625 C 151.875 -1.082031 149.40625 0.242188 146.21875 1.359375 C 143.03125 2.472656 138.9375 3.03125 133.9375 3.03125 C 124.90625 3.03125 117.382812 1.753906 111.375 -0.796875 C 105.375 -3.347656 100.535156 -6.800781 96.859375 -11.15625 C 93.191406 -15.519531 90.398438 -20.515625 88.484375 -26.140625 C 86.578125 -31.773438 85.25 -37.703125 84.5 -43.921875 C 83.757812 -50.140625 83.253906 -56.382812 82.984375 -62.65625 C 82.722656 -68.9375 82.429688 -74.890625 82.109375 -80.515625 C 81.796875 -86.148438 81.132812 -91.203125 80.125 -95.671875 C 79.113281 -100.140625 77.460938 -103.644531 75.171875 -106.1875 C 72.890625 -108.738281 69.625 -110.070312 65.375 -110.1875 L 65.375 -22.328125 C 65.375 -16.472656 66.171875 -11.789062 67.765625 -8.28125 C 69.359375 -4.78125 72.015625 -2.550781 75.734375 -1.59375 L 75.734375 0 L 3.984375 0 L 3.984375 -1.59375 C 7.703125 -2.550781 10.359375 -4.78125 11.953125 -8.28125 C 13.546875 -11.789062 14.34375 -16.472656 14.34375 -22.328125 Z M 14.34375 -159.453125 "/></g></g></g></g></g><g transform="matrix(1, 0, 0, 1, 181, 50)"><g clip-path="url(#56e725c6be)"><g fill="#5d4560" fill-opacity="1"><g transform="translate(1.416519, 156.071658)"><g><path d="M 5.859375 -74.15625 C 5.859375 -86.125 7.59375 -96.851562 11.0625 -106.34375 C 14.53125 -115.84375 19.273438 -123.890625 25.296875 -130.484375 C 31.328125 -137.078125 38.242188 -142.109375 46.046875 -145.578125 C 53.859375 -149.046875 62.144531 -150.78125 70.90625 -150.78125 C 74.457031 -150.78125 77.488281 -150.648438 80 -150.390625 C 82.519531 -150.128906 84.90625 -149.847656 87.15625 -149.546875 C 89.414062 -149.242188 91.820312 -148.960938 94.375 -148.703125 C 96.9375 -148.441406 99.953125 -148.3125 103.421875 -148.3125 C 104.722656 -148.3125 106.128906 -148.503906 107.640625 -148.890625 C 109.160156 -149.285156 110.269531 -149.914062 110.96875 -150.78125 L 112.265625 -150.78125 L 112.265625 -103.546875 L 110.96875 -103.546875 C 110.53125 -107.109375 109.679688 -110.90625 108.421875 -114.9375 C 107.171875 -118.96875 105.546875 -122.9375 103.546875 -126.84375 C 101.554688 -130.75 99.191406 -134.304688 96.453125 -137.515625 C 93.722656 -140.722656 90.664062 -143.28125 87.28125 -145.1875 C 83.90625 -147.09375 80.222656 -148.046875 76.234375 -148.046875 C 71.203125 -148.046875 66.953125 -145.984375 63.484375 -141.859375 C 60.015625 -137.742188 57.195312 -132.171875 55.03125 -125.140625 C 52.863281 -118.117188 51.28125 -110.207031 50.28125 -101.40625 C 49.28125 -92.601562 48.78125 -83.472656 48.78125 -74.015625 C 48.78125 -66.554688 49.082031 -59.226562 49.6875 -52.03125 C 50.300781 -44.832031 51.28125 -38.085938 52.625 -31.796875 C 53.96875 -25.515625 55.722656 -19.988281 57.890625 -15.21875 C 60.054688 -10.445312 62.65625 -6.71875 65.6875 -4.03125 C 68.726562 -1.34375 72.242188 0 76.234375 0 C 79.523438 0 82.601562 -1.039062 85.46875 -3.125 C 88.332031 -5.207031 90.957031 -7.984375 93.34375 -11.453125 C 95.726562 -14.921875 97.875 -18.734375 99.78125 -22.890625 C 101.6875 -27.054688 103.375 -31.21875 104.84375 -35.375 C 106.320312 -39.539062 107.5625 -43.398438 108.5625 -46.953125 C 109.5625 -50.515625 110.363281 -53.335938 110.96875 -55.421875 L 112.265625 -55.421875 L 112.265625 -8.203125 C 112.265625 -8.203125 111.484375 -7.65625 109.921875 -6.5625 C 108.367188 -5.476562 105.941406 -4.242188 102.640625 -2.859375 C 99.347656 -1.472656 95.078125 -0.238281 89.828125 0.84375 C 84.578125 1.925781 78.269531 2.46875 70.90625 2.46875 C 62.144531 2.46875 53.859375 0.734375 46.046875 -2.734375 C 38.242188 -6.203125 31.328125 -11.226562 25.296875 -17.8125 C 19.273438 -24.40625 14.53125 -32.453125 11.0625 -41.953125 C 7.59375 -51.453125 5.859375 -62.1875 5.859375 -74.15625 Z M 5.859375 -74.15625 "/></g></g></g></g></g><g fill="#5d4560" fill-opacity="1"><g transform="translate(182.413205, 359.06605)"><g><path d="M 11.703125 -130 C 11.703125 -134.851562 11.050781 -138.6875 9.75 -141.5 C 8.445312 -144.320312 6.28125 -146.125 3.25 -146.90625 L 3.25 -148.203125 L 107.515625 -148.203125 L 107.515625 -103.484375 L 106.203125 -103.484375 C 106.203125 -106.335938 105.488281 -109.582031 104.0625 -113.21875 C 102.632812 -116.863281 100.578125 -120.59375 97.890625 -124.40625 C 95.203125 -128.21875 92.035156 -131.707031 88.390625 -134.875 C 84.753906 -138.039062 80.679688 -140.617188 76.171875 -142.609375 C 71.671875 -144.597656 66.863281 -145.59375 61.75 -145.59375 L 53.296875 -145.59375 L 53.296875 -80.46875 L 58.375 -80.46875 C 61.582031 -80.46875 64.851562 -81.140625 68.1875 -82.484375 C 71.519531 -83.828125 74.640625 -85.5625 77.546875 -87.6875 C 80.453125 -89.8125 82.878906 -92.171875 84.828125 -94.765625 C 86.773438 -97.367188 87.96875 -99.882812 88.40625 -102.3125 L 89.703125 -102.3125 L 89.703125 -56.03125 L 88.40625 -56.03125 C 87.96875 -58.539062 86.773438 -61.070312 84.828125 -63.625 C 82.878906 -66.1875 80.453125 -68.53125 77.546875 -70.65625 C 74.640625 -72.78125 71.519531 -74.515625 68.1875 -75.859375 C 64.851562 -77.203125 61.582031 -77.875 58.375 -77.875 L 53.296875 -77.875 L 53.296875 -18.203125 C 53.296875 -13.429688 53.945312 -9.613281 55.25 -6.75 C 56.550781 -3.894531 58.71875 -2.078125 61.75 -1.296875 L 61.75 0 L 3.25 0 L 3.25 -1.296875 C 6.28125 -2.078125 8.445312 -3.894531 9.75 -6.75 C 11.050781 -9.613281 11.703125 -13.429688 11.703125 -18.203125 Z M 11.703125 -130 "/></g></g></g></svg>