<svg xmlns="http://www.w3.org/2000/svg" xmlns:xlink="http://www.w3.org/1999/xlink" width="500" zoomAndPan="magnify" viewBox="0 0 375 374.999991" height="500" preserveAspectRatio="xMidYMid meet" version="1.0"><defs><g/><clipPath id="88d751acca"><path d="M 0.75 0.75 L 375 0.75 L 375 375 L 0.75 375 Z M 0.75 0.75 " clip-rule="nonzero"/></clipPath><clipPath id="308c7d7334"><path d="M 187.875 0.75 C 84.527344 0.75 0.75 84.527344 0.75 187.875 C 0.75 291.222656 84.527344 375 187.875 375 C 291.222656 375 375 291.222656 375 187.875 C 375 84.527344 291.222656 0.75 187.875 0.75 Z M 187.875 0.75 " clip-rule="nonzero"/></clipPath><clipPath id="7c18843d2b"><path d="M 0.75 0.75 L 375 0.75 L 375 375 L 0.75 375 Z M 0.75 0.75 " clip-rule="nonzero"/></clipPath><clipPath id="1e3d336b03"><path d="M 187.875 0.75 C 84.527344 0.75 0.75 84.527344 0.75 187.875 C 0.75 291.222656 84.527344 375 187.875 375 C 291.222656 375 375 291.222656 375 187.875 C 375 84.527344 291.222656 0.75 187.875 0.75 Z M 187.875 0.75 " clip-rule="nonzero"/></clipPath><clipPath id="fa73779671"><rect x="0" width="375" y="0" height="375"/></clipPath><clipPath id="0826537fbb"><rect x="0" width="268" y="0" height="293"/></clipPath></defs><g clip-path="url(#88d751acca)"><g clip-path="url(#308c7d7334)"><g><g clip-path="url(#fa73779671)"><g clip-path="url(#7c18843d2b)"><g clip-path="url(#1e3d336b03)"><path fill="#f6f4f0" d="M 0.75 0.75 L 375 0.75 L 375 375 L 0.75 375 Z M 0.75 0.75 " fill-opacity="1" fill-rule="nonzero"/></g></g></g></g></g></g><g transform="matrix(1, 0, 0, 1, 41, 82)"><g clip-path="url(#0826537fbb)"><g fill="#5d4560" fill-opacity="1"><g transform="translate(1.37111, 263.398221)"><g><path d="M 256.90625 -6.328125 C 256.90625 -4.453125 256.90625 -2.925781 256.90625 -1.75 C 256.90625 -0.582031 256.90625 0 256.90625 0 L 185.109375 0 C 176.429688 0 168.863281 -2.875 162.40625 -8.625 C 155.957031 -14.375 152.144531 -21.585938 150.96875 -30.265625 C 150.03125 -39.410156 148.972656 -48.910156 147.796875 -58.765625 C 146.628906 -68.617188 145.046875 -78.0625 143.046875 -87.09375 C 141.054688 -96.132812 138.1875 -103.585938 134.4375 -109.453125 C 130.207031 -116.015625 125.21875 -119.238281 119.46875 -119.125 C 113.726562 -119.007812 108.394531 -116.660156 103.46875 -112.078125 C 98.539062 -107.503906 94.960938 -101.582031 92.734375 -94.3125 C 90.503906 -87.039062 90.914062 -79.414062 93.96875 -71.4375 C 100.0625 -55.25 106.628906 -41.695312 113.671875 -30.78125 C 120.710938 -19.875 126.929688 -11.722656 132.328125 -6.328125 L 132.328125 0 L 11.609375 0 L 11.609375 -6.328125 C 11.609375 -6.328125 13.835938 -8.96875 18.296875 -14.25 C 22.753906 -19.53125 28.148438 -27.390625 34.484375 -37.828125 C 40.816406 -48.265625 46.679688 -61.226562 52.078125 -76.71875 C 60.296875 -100.175781 65.222656 -120.46875 66.859375 -137.59375 C 68.503906 -154.726562 67.566406 -169.507812 64.046875 -181.9375 C 60.523438 -194.375 54.773438 -205.222656 46.796875 -214.484375 C 38.828125 -223.753906 29.09375 -232.265625 17.59375 -240.015625 L 17.59375 -246.703125 L 126.34375 -246.703125 L 126.34375 -240.015625 C 113.675781 -231.566406 103.117188 -222.117188 94.671875 -211.671875 C 86.222656 -201.234375 80.585938 -188.679688 77.765625 -174.015625 C 74.953125 -159.359375 75.660156 -141.472656 79.890625 -120.359375 C 80.585938 -116.367188 82.632812 -114.078125 86.03125 -113.484375 C 89.4375 -112.898438 92.082031 -114.488281 93.96875 -118.25 C 107.800781 -141.945312 122.050781 -161.59375 136.71875 -177.1875 C 151.382812 -192.789062 164.816406 -205.285156 177.015625 -214.671875 C 188.742188 -223.816406 199.179688 -230.675781 208.328125 -235.25 C 217.484375 -239.832031 224.703125 -242.828125 229.984375 -244.234375 C 235.265625 -245.640625 237.90625 -246.34375 237.90625 -246.34375 L 241.765625 -246.703125 L 242.46875 -162.9375 L 236.140625 -163.640625 C 235.671875 -166.453125 232.5625 -169.03125 226.8125 -171.375 C 221.0625 -173.726562 213.726562 -175.375 204.8125 -176.3125 C 195.90625 -177.25 186.285156 -176.953125 175.953125 -175.421875 C 165.628906 -173.898438 155.597656 -170.617188 145.859375 -165.578125 C 136.128906 -160.535156 127.742188 -153.203125 120.703125 -143.578125 C 119.066406 -141.234375 118.832031 -138.710938 120 -136.015625 C 121.175781 -133.316406 123.289062 -131.96875 126.34375 -131.96875 C 134.789062 -131.5 144.054688 -129.859375 154.140625 -127.046875 C 164.234375 -124.234375 173.796875 -120.125 182.828125 -114.71875 C 191.859375 -109.320312 199.1875 -102.40625 204.8125 -93.96875 C 209.738281 -86.6875 213.664062 -78.644531 216.59375 -69.84375 C 219.53125 -61.050781 222.523438 -52.429688 225.578125 -43.984375 C 228.628906 -35.546875 232.5 -27.984375 237.1875 -21.296875 C 241.882812 -14.609375 248.457031 -9.617188 256.90625 -6.328125 Z M 256.90625 -6.328125 "/></g></g></g></g></g></svg>