<svg xmlns="http://www.w3.org/2000/svg" xmlns:xlink="http://www.w3.org/1999/xlink" width="500" zoomAndPan="magnify" viewBox="0 0 375 374.999991" height="500" preserveAspectRatio="xMidYMid meet" version="1.0"><defs><g/></defs><rect x="-37.5" width="450" fill="#ffffff" y="-37.499999" height="449.999989" fill-opacity="1"/><rect x="-37.5" width="450" fill="#ffffff" y="-37.499999" height="449.999989" fill-opacity="1"/><g fill="#f6f4f0" fill-opacity="1"><g transform="translate(25.019512, 322.43443)"><g><path d="M 0 -236.78125 L 26.203125 -236.78125 L 26.203125 -100.078125 C 49.359375 -122.179688 71.828125 -144.390625 93.609375 -166.703125 C 115.390625 -189.015625 136.804688 -212.375 157.859375 -236.78125 L 184.0625 -236.78125 L 70.71875 -133.546875 C 75.132812 -135.234375 79.765625 -136.550781 84.609375 -137.5 C 89.453125 -138.445312 94.1875 -138.601562 98.8125 -137.96875 C 105.550781 -137.332031 111.128906 -135.59375 115.546875 -132.75 C 119.972656 -129.914062 123.765625 -126.289062 126.921875 -121.875 C 131.765625 -115.34375 136.128906 -107.445312 140.015625 -98.1875 C 143.910156 -88.925781 147.59375 -79.140625 151.0625 -68.828125 C 154.539062 -58.515625 158.117188 -48.359375 161.796875 -38.359375 C 165.484375 -28.359375 169.644531 -19.253906 174.28125 -11.046875 C 175.75 -8.941406 177.320312 -6.835938 179 -4.734375 C 180.6875 -2.628906 182.375 -1.050781 184.0625 0 L 161.328125 0 C 154.804688 0 150.597656 -1.421875 148.703125 -4.265625 C 146.804688 -7.109375 144.703125 -10.945312 142.390625 -15.78125 C 139.648438 -22.09375 136.804688 -29.507812 133.859375 -38.03125 C 130.910156 -46.5625 127.910156 -55.351562 124.859375 -64.40625 C 121.804688 -73.457031 118.597656 -82.140625 115.234375 -90.453125 C 111.867188 -98.765625 108.289062 -105.972656 104.5 -112.078125 C 97.769531 -122.597656 89.984375 -128.332031 81.140625 -129.28125 C 72.296875 -130.226562 63.242188 -126.492188 53.984375 -118.078125 L 26.203125 -92.828125 L 26.203125 0 L 0 0 Z M 0 -236.78125 "/></g></g></g><g fill="#f6f4f0" fill-opacity="1"><g transform="translate(148.043257, 218.699984)"><g><path d="M 96.75 -193.5 C 103.800781 -193.5 110.804688 -192.851562 117.765625 -191.5625 C 124.734375 -190.269531 131.398438 -188.164062 137.765625 -185.25 C 141.898438 -183.351562 146.160156 -180.769531 150.546875 -177.5 C 154.929688 -174.238281 158.628906 -170.5 161.640625 -166.28125 C 164.648438 -162.0625 166.15625 -157.460938 166.15625 -152.484375 C 166.15625 -146.628906 164.21875 -141.765625 160.34375 -137.890625 C 156.476562 -134.023438 150.929688 -132.179688 143.703125 -132.359375 C 146.453125 -140.097656 147.097656 -147.40625 145.640625 -154.28125 C 144.179688 -161.164062 141.128906 -167.226562 136.484375 -172.46875 C 131.835938 -177.71875 126.070312 -181.847656 119.1875 -184.859375 C 112.3125 -187.867188 104.832031 -189.375 96.75 -189.375 C 86.425781 -189.375 76.707031 -186.960938 67.59375 -182.140625 C 58.476562 -177.328125 50.4375 -170.660156 43.46875 -162.140625 C 36.507812 -153.628906 31.09375 -143.785156 27.21875 -132.609375 C 23.34375 -121.429688 21.40625 -109.476562 21.40625 -96.75 C 21.40625 -84.882812 23.125 -73.660156 26.5625 -63.078125 C 30.007812 -52.503906 34.742188 -43.085938 40.765625 -34.828125 C 46.785156 -26.578125 53.75 -19.867188 61.65625 -14.703125 C 70.78125 -8.859375 80.195312 -5.460938 89.90625 -4.515625 C 99.625 -3.566406 109.171875 -4.640625 118.546875 -7.734375 C 127.921875 -10.835938 136.691406 -15.441406 144.859375 -21.546875 C 153.035156 -27.648438 160.132812 -34.832031 166.15625 -43.09375 L 166.15625 -21.40625 C 157.382812 -14.53125 147.019531 -9.242188 135.0625 -5.546875 C 123.101562 -1.847656 110.332031 0 96.75 0 C 83.507812 0 71.039062 -2.492188 59.34375 -7.484375 C 47.644531 -12.472656 37.363281 -19.394531 28.5 -28.25 C 19.644531 -37.101562 12.679688 -47.378906 7.609375 -59.078125 C 2.535156 -70.773438 0 -83.332031 0 -96.75 C 0 -110.164062 2.492188 -122.722656 7.484375 -134.421875 C 12.472656 -146.117188 19.394531 -156.394531 28.25 -165.25 C 37.101562 -174.101562 47.378906 -181.023438 59.078125 -186.015625 C 70.773438 -191.003906 83.332031 -193.5 96.75 -193.5 Z M 96.75 -193.5 "/></g></g></g><g fill="#f6f4f0" fill-opacity="1"><g transform="translate(211.041977, 348.654512)"><g><path d="M 0 -193.5 L 138.03125 -193.5 L 138.03125 -171.828125 C 129.425781 -173.722656 121.082031 -175.703125 113 -177.765625 C 104.914062 -179.828125 96.488281 -181.71875 87.71875 -183.4375 C 78.945312 -185.15625 69.1875 -186.570312 58.4375 -187.6875 C 47.6875 -188.8125 35.34375 -189.375 21.40625 -189.375 L 21.40625 -110.171875 C 25.882812 -115.671875 31.304688 -119.453125 37.671875 -121.515625 C 44.035156 -123.578125 50.398438 -123.921875 56.765625 -122.546875 C 61.054688 -121.691406 65.265625 -120.316406 69.390625 -118.421875 C 73.523438 -116.523438 77.65625 -114.675781 81.78125 -112.875 C 85.914062 -111.070312 90.21875 -109.828125 94.6875 -109.140625 C 98.644531 -108.453125 102.644531 -108.535156 106.6875 -109.390625 C 110.726562 -110.253906 113.265625 -113.351562 114.296875 -118.6875 C 116.359375 -109.394531 115.710938 -102.210938 112.359375 -97.140625 C 109.003906 -92.066406 104.144531 -89.097656 97.78125 -88.234375 C 91.59375 -87.546875 85.703125 -88.40625 80.109375 -90.8125 C 74.515625 -93.21875 69.140625 -96.179688 63.984375 -99.703125 C 58.828125 -103.234375 53.753906 -106.242188 48.765625 -108.734375 C 43.773438 -111.234375 38.785156 -112.226562 33.796875 -111.71875 C 30.703125 -111.375 27.863281 -110.253906 25.28125 -108.359375 C 22.695312 -106.460938 21.40625 -103.625 21.40625 -99.84375 L 21.40625 0 L 0 0 Z M 0 -193.5 "/></g></g></g></svg>